<svg width="36" height="36" viewBox="0 0 36 36" fill="none" xmlns="http://www.w3.org/2000/svg">
<path d="M22.3869 9.9907C22.3868 9.12307 22.1294 8.27497 21.6473 7.55362C21.1651 6.83227 20.48 6.27008 19.6784 5.93814C18.8767 5.60619 17.9947 5.5194 17.1438 5.68874C16.2928 5.85808 15.5112 6.27594 14.8977 6.88948C14.2843 7.50303 13.8665 8.2847 13.6973 9.13567C13.5281 9.98663 13.615 10.8687 13.947 11.6702C14.2791 12.4718 14.8414 13.1569 15.5628 13.6389C16.2842 14.1209 17.1323 14.3782 18 14.3782C19.1631 14.3768 20.2782 13.9141 21.1006 13.0915C21.923 12.269 22.3856 11.1539 22.3869 9.9907ZM14.6521 9.9907C14.6522 9.32858 14.8487 8.68137 15.2166 8.13089C15.5845 7.58042 16.1074 7.1514 16.7192 6.8981C17.331 6.6448 18.0041 6.57859 18.6535 6.70784C19.3028 6.83708 19.8993 7.15598 20.3675 7.62421C20.8356 8.09244 21.1544 8.68897 21.2835 9.33838C21.4127 9.98778 21.3463 10.6609 21.0929 11.2726C20.8395 11.8843 20.4104 12.4071 19.8599 12.775C19.3093 13.1428 18.6621 13.3392 18 13.3392C17.1123 13.3381 16.2612 12.985 15.6336 12.3572C15.0059 11.7295 14.653 10.8784 14.6521 9.9907Z" fill="black"/>
<path d="M35.613 34.9424L31.3777 23.8393C31.3402 23.741 31.2737 23.6564 31.187 23.5967C31.1003 23.537 30.9976 23.505 30.8923 23.505H22.8767C22.9257 23.4251 22.9744 23.3476 23.0234 23.2675C26.1076 18.1612 27.6597 13.6945 27.6374 9.99302C27.6378 7.43693 26.6229 4.98536 24.8157 3.17762C23.0086 1.36989 20.5574 0.354071 18.0013 0.353638C15.4452 0.353205 12.9936 1.36819 11.1859 3.17531C9.37816 4.98244 8.36234 7.43366 8.36191 9.98975C8.33965 13.6945 9.89171 18.1618 12.9759 23.2675C13.0249 23.3485 13.0736 23.426 13.1226 23.505H5.10697C5.00174 23.505 4.899 23.537 4.81233 23.5967C4.72566 23.6564 4.65915 23.741 4.62158 23.8393L0.386958 34.9424C0.356785 35.0211 0.346219 35.1059 0.356174 35.1896C0.366128 35.2732 0.396303 35.3532 0.444092 35.4226C0.491881 35.492 0.555846 35.5487 0.630461 35.5878C0.705076 35.6269 0.788096 35.6473 0.872349 35.6472H35.1276C35.2118 35.6473 35.2948 35.6269 35.3695 35.5878C35.4441 35.5487 35.508 35.492 35.5558 35.4226C35.6036 35.3532 35.6338 35.2732 35.6437 35.1896C35.6537 35.1059 35.6431 35.0211 35.613 34.9424ZM9.40127 9.99065C9.40147 8.86145 9.62407 7.74335 10.0564 6.70018C10.4887 5.65702 11.1222 4.70921 11.9208 3.91089C12.7194 3.11257 13.6674 2.47935 14.7108 2.04741C15.7541 1.61547 16.8722 1.39325 18.0014 1.39344C19.1306 1.39364 20.2487 1.61624 21.2919 2.04855C22.3351 2.48085 23.2829 3.11439 24.0812 3.91299C24.8795 4.71159 25.5127 5.65961 25.9447 6.70293C26.3766 7.74624 26.5988 8.86442 26.5986 9.99361C26.6432 17.3733 19.7438 26.4752 18 28.6578C16.2561 26.4761 9.35644 17.3766 9.40127 9.99065ZM17.6042 29.8157C17.653 29.873 17.7136 29.9191 17.782 29.9506C17.8503 29.9822 17.9247 29.9986 18 29.9986C18.0752 29.9986 18.1496 29.9822 18.2179 29.9506C18.2863 29.9191 18.3469 29.873 18.3957 29.8157C19.7751 28.1353 21.0539 26.3748 22.2254 24.5435H30.534L31.199 26.2876L14.9626 32.0621L9.17535 24.5426H13.7739C14.9456 26.3743 16.2246 28.135 17.6042 29.8157ZM14.9445 33.1703H14.9475L24.6336 29.7266L28.3906 34.6081H10.9046L14.9445 33.1703ZM5.4653 24.5426H7.86405L13.9328 32.4282L7.80438 34.6078H1.62641L5.4653 24.5426ZM29.7031 34.6081L25.6629 29.3588L31.5707 27.2578L34.3741 34.6081H29.7031Z" fill="black"/>
</svg>
